HIERARCHY
ROOT Hips
{
	OFFSET 0.000000 0.000000 0.000000
	CHANNELS 6 Xposition Yposition Zposition Xrotation Yrotation Zrotation
	JOINT LeftUpLeg_virtual
	{
		OFFSET 0.000000 0.000000 0.000000
		CHANNELS 3 Xrotation Yrotation Zrotation
		JOINT LeftUpLeg
		{
			OFFSET 10.205400 -3.823500 0.155100
			CHANNELS 3 Xrotation Yrotation Zrotation
			JOINT LeftLeg
			{
				OFFSET 0.708757 -12.982077 0.567790
				CHANNELS 3 Xrotation Yrotation Zrotation
				JOINT LeftFoot
				{
					OFFSET -0.708756 -10.717838 -2.184338
					CHANNELS 3 Xrotation Yrotation Zrotation
					JOINT LeftToeBase
					{
						OFFSET 0.108149 -7.191104 7.560241
						CHANNELS 3 Xrotation Yrotation Zrotation
						JOINT LeftToe_End
						{
							OFFSET 0.070230 0.081724 4.490308
							CHANNELS 3 Xrotation Yrotation Zrotation
							End Site
							{
								OFFSET 0 0 0
							}
						}
					}
				}
			}
		}
	}
	JOINT RightUpLeg_virtual
	{
		OFFSET 0.000000 0.000000 0.000000
		CHANNELS 3 Xrotation Yrotation Zrotation
		JOINT RightUpLeg
		{
			OFFSET -10.205400 -3.823500 0.005500
			CHANNELS 3 Xrotation Yrotation Zrotation
			JOINT RightLeg
			{
				OFFSET -0.708756 -12.982134 0.610632
				CHANNELS 3 Xrotation Yrotation Zrotation
				JOINT RightFoot
				{
					OFFSET 0.708754 -10.717769 -1.945823
					CHANNELS 3 Xrotation Yrotation Zrotation
					JOINT RightToeBase
					{
						OFFSET -0.108140 -7.191069 7.372968
						CHANNELS 3 Xrotation Yrotation Zrotation
						JOINT RightToe_End
						{
							OFFSET -0.070227 0.081735 4.479403
							CHANNELS 3 Xrotation Yrotation Zrotation
							End Site
							{
								OFFSET 0 0 0
							}
						}
					}
				}
			}
		}
	}
	JOINT Spine_virtual
	{
		OFFSET 0.000000 0.000000 0.000000
		CHANNELS 3 Xrotation Yrotation Zrotation
		JOINT Spine
		{
			OFFSET 0.000000 6.876099 0.125700
			CHANNELS 3 Xrotation Yrotation Zrotation
			JOINT Spine1
			{
				OFFSET 0.000000 5.730043 0.104720
				CHANNELS 3 Xrotation Yrotation Zrotation
				JOINT Spine1_split
				{
					OFFSET 0.000000 5.730043 0.104720
					CHANNELS 3 Xrotation Yrotation Zrotation
					JOINT Spine2
					{
						OFFSET 0.000000 5.730043 0.104720
						CHANNELS 3 Xrotation Yrotation Zrotation
						JOINT Neck_virtual
						{
							OFFSET 0.000000 0.000000 0.000000
							CHANNELS 3 Xrotation Yrotation Zrotation
							JOINT Neck
							{
								OFFSET 0.000000 10.314075 0.188496
								CHANNELS 3 Xrotation Yrotation Zrotation
								JOINT Head
								{
									OFFSET 0.000000 7.643700 -2.377400
									CHANNELS 3 Xrotation Yrotation Zrotation
									JOINT HeadTop_End
									{
										OFFSET 0.000000 43.788605 -13.619600
										CHANNELS 3 Xrotation Yrotation Zrotation
										End Site
										{
											OFFSET 0 0 0
										}
									}
								}
							}
						}
						JOINT LeftShoulder_virtual
						{
							OFFSET 0.000000 0.000000 0.000000
							CHANNELS 3 Xrotation Yrotation Zrotation
							JOINT LeftShoulder
							{
								OFFSET 2.196100 4.412489 0.087492
								CHANNELS 3 Xrotation Yrotation Zrotation
								JOINT LeftShoulder_split
								{
									OFFSET 2.196100 4.412489 0.087492
									CHANNELS 3 Xrotation Yrotation Zrotation
									JOINT LeftArm
									{
										OFFSET 8.771219 -2.981674 -0.026999
										CHANNELS 3 Xrotation Yrotation Zrotation
										JOINT LeftForeArm
										{
											OFFSET 8.512804 0.000000 -0.000000
											CHANNELS 3 Xrotation Yrotation Zrotation
											JOINT LeftHand
											{
												OFFSET 18.484802 0.000000 -0.000000
												CHANNELS 3 Xrotation Yrotation Zrotation
												End Site
												{
													OFFSET 0 0 0
												}
											}
										}
									}
								}
							}
						}
						JOINT RightShoulder_virtual
						{
							OFFSET 0.000000 0.000000 0.000000
							CHANNELS 3 Xrotation Yrotation Zrotation
							JOINT RightShoulder
							{
								OFFSET -2.196100 4.412496 0.070690
								CHANNELS 3 Xrotation Yrotation Zrotation
								JOINT RightShoulder_split
								{
									OFFSET -2.196100 4.412496 0.070690
									CHANNELS 3 Xrotation Yrotation Zrotation
									JOINT RightArm
									{
										OFFSET -8.771282 -2.981682 -0.094208
										CHANNELS 3 Xrotation Yrotation Zrotation
										JOINT RightForeArm
										{
											OFFSET -8.494598 0.000000 0.000000
											CHANNELS 3 Xrotation Yrotation Zrotation
											JOINT RightHand
											{
												OFFSET -18.483803 0.000000 0.000001
												CHANNELS 3 Xrotation Yrotation Zrotation
												End Site
												{
													OFFSET 0 0 0
												}
											}
										}
									}
								}
							}
						}
					}
				}
			}
		}
	}
}
MOTION
Frames: 10
Frame Time: 0.03333333
-0.180541 29.632158 0.013693 0.000000 0.000000 0.000000 3.006381 -62.054864 5.620857 -31.263972 7.653169 31.057830 41.923343 -8.544067 -11.704916 -14.560829 -2.038496 -11.466315 1.605487 0.968589 0.208778 0.000000 0.000000 0.000000 1.640004 -60.271017 5.300633 -22.314322 -8.678064 -31.899091 39.604507 4.655342 -7.358332 -24.980596 0.205745 24.116157 2.650771 -0.440850 0.025836 0.000000 0.000000 0.000000 1.783273 -60.725709 4.624790 10.679084 1.077606 -2.169831 9.061084 -0.069089 -5.790333 0.761382 -2.699313 1.425772 0.000000 0.000000 0.000000 10.170521 0.309609 -5.810523 -18.685980 20.921855 10.227726 4.922575 30.032185 -5.791813 0.000000 0.000000 0.000000 11.135631 -0.220525 -5.484274 -6.353084 -10.914715 -4.673203 0.295037 -0.272097 -3.589531 -19.909141 8.314898 -33.959236 2.525888 -46.671325 2.291011 0.000000 0.000000 0.000000 10.147671 -0.025316 -5.372567 -4.705462 10.836159 3.835944 4.655117 2.224806 -0.603042 -35.124497 -21.069173 36.457958 -155.689763 63.138528 153.854574 0.000000 0.000000 0.000000 
-0.157499 29.627373 0.175987 0.000000 0.000000 0.000000 2.834661 -62.139934 5.579902 -31.245732 7.848967 30.895995 42.030945 -8.391336 -11.733812 -14.655322 -1.927589 -11.266555 1.563161 0.944633 0.247447 0.000000 0.000000 0.000000 1.566365 -60.380675 5.312954 -22.176731 -8.485744 -32.220635 39.714353 4.771493 -7.262072 -25.043584 0.159556 24.037857 2.593844 -0.404043 0.003892 0.000000 0.000000 0.000000 1.815809 -60.798000 4.694410 10.709174 1.142939 -2.214132 9.106730 -0.021386 -5.765166 0.769747 -2.829478 1.430645 0.000000 0.000000 0.000000 10.191001 0.342152 -5.830293 -18.574216 20.774886 10.344052 4.803729 29.987563 -5.782029 0.000000 0.000000 0.000000 11.163407 -0.203263 -5.456462 -6.382206 -11.074153 -4.671525 0.199736 -0.393094 -3.560140 -20.095086 8.223688 -33.994336 2.347009 -46.532904 2.325953 0.000000 0.000000 0.000000 10.040689 -0.020689 -5.351911 -4.727219 10.824809 3.820355 4.970308 2.145624 -0.608478 -35.035633 -21.175909 36.718393 -155.634780 62.893926 153.620162 0.000000 0.000000 0.000000 
-0.077015 29.631514 0.401112 0.000000 0.000000 0.000000 2.726673 -62.134859 5.614648 -31.220354 8.044307 30.539193 42.397505 -8.357017 -11.739721 -14.969784 -1.921649 -10.876623 1.454875 0.910769 0.328285 0.000000 0.000000 0.000000 1.518762 -60.362787 5.361924 -21.760327 -8.436870 -32.844570 39.493496 5.003961 -7.146969 -24.988319 0.077099 24.229387 2.586518 -0.391989 0.050929 0.000000 0.000000 0.000000 1.874199 -60.833906 4.842329 10.698515 1.270125 -2.274087 9.150416 0.029243 -5.720303 0.790768 -2.855901 1.391127 0.000000 0.000000 0.000000 10.192694 0.376971 -5.828361 -18.487973 20.467481 10.459441 4.700330 29.789665 -6.013831 0.000000 0.000000 0.000000 11.145296 -0.197936 -5.412527 -6.425282 -11.251318 -4.767051 0.038043 -0.437662 -3.592280 -20.551001 7.877249 -33.934559 2.357425 -45.999729 2.635582 0.000000 0.000000 0.000000 9.918465 -0.015526 -5.313853 -4.777119 10.823641 3.982388 5.066090 2.044830 -0.570122 -34.723592 -21.472701 37.122119 -155.885394 63.115879 153.335739 0.000000 0.000000 0.000000 
0.050968 29.639906 0.664509 0.000000 0.000000 0.000000 2.710580 -62.077021 5.739411 -31.241128 8.221155 30.009276 42.989334 -8.420183 -11.736683 -15.464428 -2.028161 -10.337651 1.368020 0.869346 0.449958 0.000000 0.000000 0.000000 1.517915 -60.267322 5.455796 -21.156207 -8.518260 -33.719152 38.927202 5.327501 -6.986850 -24.814852 -0.035662 24.657960 2.635519 -0.394564 0.135764 0.000000 0.000000 0.000000 1.951596 -60.833858 5.032906 10.653974 1.434535 -2.341840 9.190235 0.074825 -5.653320 0.807257 -2.829373 1.275670 0.000000 0.000000 0.000000 10.178022 0.404706 -5.796599 -18.430970 19.962896 10.592922 4.624193 29.413841 -6.472129 0.000000 0.000000 0.000000 11.086360 -0.204925 -5.343585 -6.481759 -11.415791 -4.937491 -0.236894 -0.372371 -3.624335 -21.150497 7.342791 -33.795428 2.528120 -45.246598 3.188556 0.000000 0.000000 0.000000 9.786892 -0.017514 -5.254993 -4.854058 10.836888 4.283832 4.952691 1.940504 -0.495740 -34.371817 -21.888437 37.578044 -156.343221 63.832598 152.906899 0.000000 0.000000 0.000000 
0.212755 29.652546 0.975834 0.000000 0.000000 0.000000 2.775800 -62.001520 5.940873 -31.296395 8.389260 29.298120 43.692303 -8.504814 -11.736744 -16.084686 -2.211459 -9.649632 1.339479 0.827258 0.604957 0.000000 0.000000 0.000000 1.551983 -60.167772 5.595278 -20.458891 -8.689418 -34.768484 38.012397 5.725118 -6.765795 -24.525643 -0.164556 25.296113 2.686561 -0.405977 0.223125 0.000000 0.000000 0.000000 2.073164 -60.793492 5.247776 10.575624 1.601308 -2.410761 9.222780 0.106217 -5.560749 0.825754 -2.730897 1.155857 0.000000 0.000000 0.000000 10.154933 0.415188 -5.732227 -18.392830 19.223718 10.763620 4.575907 28.848107 -7.148953 0.000000 0.000000 0.000000 10.992419 -0.222346 -5.241929 -6.554039 -11.562091 -5.178555 -0.542666 -0.195993 -3.634513 -21.763057 6.697480 -33.609780 2.765367 -44.523807 3.906785 0.000000 0.000000 0.000000 9.651115 -0.031536 -5.174706 -4.951149 10.865386 4.686161 4.701220 1.833431 -0.331017 -34.148040 -22.296963 37.964387 -156.856469 65.046289 152.191627 0.000000 0.000000 0.000000 
0.384779 29.676620 1.345104 0.000000 0.000000 0.000000 2.916318 -61.944440 6.201824 -31.326553 8.572517 28.426762 44.373922 -8.534753 -11.750885 -16.796666 -2.408360 -8.822407 1.369823 0.791276 0.771422 0.000000 0.000000 0.000000 1.599971 -60.120391 5.762988 -19.729413 -8.917961 -35.919753 36.790169 6.178369 -6.471276 -24.086964 -0.293947 26.127265 2.655360 -0.425761 0.288255 0.000000 0.000000 0.000000 2.250446 -60.748290 5.475408 10.464631 1.737890 -2.476134 9.246889 0.113992 -5.447486 0.886245 -2.598548 1.053174 0.000000 0.000000 0.000000 10.126154 0.404355 -5.643112 -18.358287 18.223534 10.972533 4.523227 28.039627 -7.992878 0.000000 0.000000 0.000000 10.870880 -0.246785 -5.110508 -6.641178 -11.693712 -5.492585 -0.830251 -0.044287 -3.631145 -22.234566 6.103844 -33.392279 3.017972 -44.096746 4.745773 0.000000 0.000000 0.000000 9.515921 -0.058535 -5.081189 -5.075146 10.891003 5.175808 4.425146 1.853884 -0.189710 -34.197900 -22.587803 38.148492 -157.151738 66.763330 150.954298 0.000000 0.000000 0.000000 
0.559325 29.714277 1.784109 0.000000 0.000000 0.000000 3.118396 -61.935329 6.492764 -31.257818 8.796472 27.421367 44.922499 -8.436945 -11.779856 -17.578581 -2.563004 -7.833481 1.407562 0.764228 0.933512 0.000000 0.000000 0.000000 1.724566 -60.122385 5.986958 -18.956751 -9.192719 -37.114988 35.275615 6.663682 -6.092476 -23.488454 -0.396288 27.100949 2.561260 -0.456379 0.317761 0.000000 0.000000 0.000000 2.483311 -60.714699 5.706327 10.325845 1.826674 -2.535003 9.258616 0.108944 -5.326924 0.982687 -2.427335 0.955938 0.000000 0.000000 0.000000 10.079147 0.383400 -5.547792 -18.302650 16.934501 11.200514 4.456885 26.910037 -8.951947 0.000000 0.000000 0.000000 10.732004 -0.269551 -4.970286 -6.739001 -11.813029 -5.885489 -1.109547 -0.029643 -3.622029 -22.511588 5.710485 -33.167313 3.251590 -44.110629 5.674243 0.000000 0.000000 0.000000 9.383711 -0.089272 -4.989772 -5.222849 10.926243 5.782658 4.222407 2.027275 -0.069741 -34.513752 -22.722357 38.084995 -156.882492 68.942652 148.933163 0.000000 0.000000 0.000000 
0.730440 29.771906 2.262938 0.000000 0.000000 0.000000 3.361583 -61.997456 6.786809 -31.020622 9.095952 26.322330 45.291678 -8.172758 -11.823562 -18.420240 -2.643579 -6.669272 1.463802 0.748594 1.055287 0.000000 0.000000 0.000000 1.955758 -60.201164 6.267376 -18.134434 -9.518509 -38.285802 33.500855 7.134624 -5.631199 -22.753711 -0.463743 28.118938 2.466719 -0.491472 0.324459 0.000000 0.000000 0.000000 2.742877 -60.705041 5.919207 10.176067 1.856311 -2.587075 9.246578 0.102279 -5.215243 0.997065 -2.201517 0.866752 0.000000 0.000000 0.000000 10.004988 0.365514 -5.466432 -18.212419 15.331417 11.412998 4.356856 25.397013 -9.951535 0.000000 0.000000 0.000000 10.573704 -0.291458 -4.842970 -6.847881 -11.923225 -6.361442 -1.417507 -0.085536 -3.599663 -22.619245 5.593711 -32.991743 3.532855 -44.639654 6.724456 0.000000 0.000000 0.000000 9.250141 -0.114213 -4.918199 -5.400846 10.981705 6.556858 4.186375 2.203103 0.004509 -35.068513 -22.611374 37.752593 -155.618183 71.509130 145.801958 0.000000 0.000000 0.000000 
0.901010 29.843494 2.770197 0.000000 0.000000 0.000000 3.629718 -62.113959 7.072555 -30.621510 9.465492 25.196511 45.492827 -7.798936 -11.878487 -19.282000 -2.680954 -5.422045 1.548483 0.743596 1.125078 0.000000 0.000000 0.000000 2.261620 -60.328807 6.565106 -17.254069 -9.910773 -39.382499 31.509859 7.518536 -5.095090 -21.892903 -0.499319 29.069681 2.403573 -0.519440 0.324817 0.000000 0.000000 0.000000 2.973971 -60.698266 6.087890 10.036150 1.826122 -2.642045 9.198116 0.097581 -5.128705 0.950218 -1.896598 0.812793 0.000000 0.000000 0.000000 9.885982 0.356035 -5.412722 -18.055562 13.426756 11.540668 4.206669 23.431705 -10.901737 0.000000 0.000000 0.000000 10.388743 -0.310564 -4.749272 -6.969823 -12.013460 -6.923276 -1.747652 -0.180129 -3.567656 -22.724359 5.785918 -32.899351 3.933065 -45.630738 7.928892 0.000000 0.000000 0.000000 9.101160 -0.132122 -4.878912 -5.608997 11.046541 7.549283 4.334131 2.380811 0.007039 -35.821060 -22.159685 37.153620 -152.664236 74.334219 140.965870 0.000000 0.000000 0.000000 
1.072488 29.922195 3.279211 0.000000 0.000000 0.000000 3.865182 -62.247633 7.299306 -30.141420 9.876668 24.118831 45.567986 -7.419156 -11.942737 -20.067429 -2.734855 -4.209813 1.595794 0.746963 1.172428 0.000000 0.000000 0.000000 2.568665 -60.476161 6.818977 -16.302517 -10.386032 -40.365800 29.319663 7.798469 -4.506891 -20.927351 -0.515663 29.918127 2.366102 -0.541452 0.317939 0.000000 0.000000 0.000000 3.172520 -60.675180 6.204070 9.919555 1.750004 -2.706922 9.096830 0.097058 -5.073031 0.852957 -1.539350 0.809334 0.000000 0.000000 0.000000 9.719393 0.351771 -5.391613 -17.786764 11.258952 11.542116 3.986765 20.957742 -11.701479 0.000000 0.000000 0.000000 10.167637 -0.327135 -4.691322 -7.100301 -12.078040 -7.557349 -2.083227 -0.262612 -3.510696 -23.007118 6.164212 -32.902336 4.433473 -46.822887 9.274765 0.000000 0.000000 0.000000 8.922355 -0.143978 -4.870539 -5.840108 11.089857 8.781345 4.570157 2.556034 -0.001009 -36.659941 -21.351940 36.385090 -146.660472 77.308780 133.149210 0.000000 0.000000 0.000000 
